<svg width="500" height="500" viewBox="0 0 500 500" fill="none" xmlns="http://www.w3.org/2000/svg">
<path opacity="0.08" d="M421.779 252.533C421.779 346.981 345.215 423.545 250.767 423.545C156.32 423.545 79.7548 346.981 79.7548 252.533C79.7548 158.086 156.32 81.5209 250.767 81.5209C345.215 81.5209 421.779 158.086 421.779 252.533Z" fill="#2D2E40"/>
<path opacity="0.5" d="M442.485 250.233C442.485 356.539 356.307 442.718 250 442.718C143.694 442.718 57.5156 356.539 57.5156 250.233C57.5156 143.926 143.694 57.7481 250 57.7481C356.307 57.7481 442.485 143.926 442.485 250.233Z" stroke="#2D2E40"/>
<path opacity="0.25" d="M499.233 250.233C499.233 387.881 387.648 499.466 250 499.466C112.352 499.466 0.766846 387.881 0.766846 250.233C0.766846 112.585 112.352 0.999969 250 0.999969C387.648 0.999969 499.233 112.585 499.233 250.233Z" stroke="#2D2E40"/>
<mask id="mask0" mask-type="alpha" maskUnits="userSpaceOnUse" x="0" y="83" width="500" height="333">
<path d="M492.331 83.0544H7.66871C3.4334 83.0544 0 86.4878 0 90.7232V408.208C0 412.443 3.4334 415.877 7.66871 415.877H492.331C496.567 415.877 500 412.443 500 408.208V90.7232C500 86.4878 496.567 83.0544 492.331 83.0544Z" fill="white"/>
</mask>
<g mask="url(#mask0)">
<g filter="url(#filter0_d)">
<path d="M492.331 83.0544H7.66871C3.4334 83.0544 0 86.4878 0 90.7232V408.208C0 412.443 3.4334 415.877 7.66871 415.877H492.331C496.567 415.877 500 412.443 500 408.208V90.7232C500 86.4878 496.567 83.0544 492.331 83.0544Z" fill="black"/>
</g>
<path d="M492.331 83.0544H7.66871C3.4334 83.0544 0 86.4878 0 90.7232V408.208C0 412.443 3.4334 415.877 7.66871 415.877H492.331C496.567 415.877 500 412.443 500 408.208V90.7232C500 86.4878 496.567 83.0544 492.331 83.0544Z" fill="url(#paint0_linear)"/>
<path d="M4.60123 180.486H495.399C496.003 180.486 496.601 180.605 497.16 180.836C497.718 181.067 498.225 181.406 498.652 181.834C499.08 182.261 499.419 182.768 499.65 183.326C499.881 183.885 500 184.483 500 185.087V411.276C500 412.496 499.515 413.666 498.652 414.529C497.789 415.392 496.619 415.877 495.399 415.877H4.60123C3.38091 415.877 2.21057 415.392 1.34767 414.529C0.484771 413.666 0 412.496 0 411.276L0 185.087C0 183.867 0.484771 182.696 1.34767 181.834C2.21057 180.971 3.38091 180.486 4.60123 180.486V180.486Z" fill="#2D2E40"/>
<path d="M171.652 120.241H75.1028C72.5616 120.241 70.5016 122.301 70.5016 124.843V222.553C70.5016 225.094 72.5616 227.154 75.1028 227.154H171.652C174.193 227.154 176.253 225.094 176.253 222.553V124.843C176.253 122.301 174.193 120.241 171.652 120.241Z" fill="white"/>
<path d="M123.377 204.841C140.284 204.841 153.989 191.105 153.989 174.162C153.989 157.218 140.284 143.482 123.377 143.482C106.471 143.482 92.7654 157.218 92.7654 174.162C92.7654 191.105 106.471 204.841 123.377 204.841Z" fill="#2D2E40"/>
<path d="M424.897 120.241H198.478C195.937 120.241 193.877 122.301 193.877 124.843V369.441C193.877 371.982 195.937 374.042 198.478 374.042H424.897C427.438 374.042 429.498 371.982 429.498 369.441V124.843C429.498 122.301 427.438 120.241 424.897 120.241Z" fill="white"/>
</g>
<path d="M162.577 303.914C199.189 246.561 226.267 215.57 243.81 210.938C270.126 203.99 262.276 275.929 300.166 267.592C338.057 259.254 342.676 186.312 371.336 182.877C399.994 179.44 415.155 246.154 427.675 252.3C436.02 256.398 446.325 247.538 458.589 225.717" stroke="url(#paint1_linear)" stroke-width="8" stroke-linecap="round"/>
<defs>
<filter id="filter0_d" x="-40" y="63.0544" width="580" height="412.822" filterUnits="userSpaceOnUse" color-interpolation-filters="sRGB">
<feFlood flood-opacity="0" result="BackgroundImageFix"/>
<feColorMatrix in="SourceAlpha" type="matrix" values="0 0 0 0 0 0 0 0 0 0 0 0 0 0 0 0 0 0 127 0"/>
<feOffset dy="20"/>
<feGaussianBlur stdDeviation="20"/>
<feColorMatrix type="matrix" values="0 0 0 0 0.421822 0 0 0 0 0.554338 0 0 0 0 0.89371 0 0 0 0.243444 0"/>
<feBlend mode="normal" in2="BackgroundImageFix" result="effect1_dropShadow"/>
<feBlend mode="normal" in="SourceGraphic" in2="effect1_dropShadow" result="shape"/>
</filter>
<linearGradient id="paint0_linear" x1="3.40922e-06" y1="175.732" x2="414.503" y2="451.642" gradientUnits="userSpaceOnUse">
<stop stop-color="#FF8F71"/>
<stop offset="1" stop-color="#FF3E55"/>
</linearGradient>
<linearGradient id="paint1_linear" x1="162.577" y1="233.181" x2="423.23" y2="339.869" gradientUnits="userSpaceOnUse">
<stop stop-color="#FF8F71"/>
<stop offset="1" stop-color="#FF3E55"/>
</linearGradient>
</defs>
</svg>
